<?xml version="1.0" standalone="no"?><!DOCTYPE svg PUBLIC "-//W3C//DTD SVG 1.1//EN" "http://www.w3.org/Graphics/SVG/1.1/DTD/svg11.dtd"><svg t="1523602715272" class="icon" style="" viewBox="0 0 1024 1024" version="1.1" xmlns="http://www.w3.org/2000/svg" p-id="3776" xmlns:xlink="http://www.w3.org/1999/xlink" width="64" height="64"><defs><style type="text/css"></style></defs><path d="M245.315526 218.81803s32.480801-10.257095 63.252087-15.385643c30.771285-5.128548 29.06177-32.480801 109.409015-51.285475 0 0 34.190317-42.737896 76.928213-39.318865 0 0 47.866444 6.838063 35.899833-13.676127-11.966611-20.51419-37.609349-71.799666 6.838064-88.894825s66.671119 3.419032 75.218698 11.966611c8.547579 8.547579 8.547579 23.933222 8.547579 23.933222s3.419032 27.352254 1.709516 34.190317c-1.709516 6.838063-23.933222 20.51419-11.966611 27.352254 11.966611 6.838063 92.313856-5.128548 95.732888 70.09015 0 0 39.318865 54.704508 52.994992 78.63773 0 0 54.704508 44.447412 68.380634 70.09015 0 0 52.994992 44.447412 56.414023 47.866444 1.709516 3.419032 66.671119 51.285476 37.609349 56.414024 0 0 1.709516 34.190317-15.385642 6.838063-15.385643-27.352254-13.676127-8.547579-13.676127-5.128547s10.257095 35.899833-20.514191 17.095158c-29.06177-18.804674-23.933222-44.447412-23.933222-44.447412s11.966611-6.838063-13.676127-22.223706-66.671119-46.156928-66.671118-54.704508c0 0-49.57596-35.899833-56.414023-52.994992-6.838063-15.385643-6.838063 0-10.257096 6.838064 0 0-25.642738 42.737896-20.51419 61.542571 3.419032 18.804674 29.06177 99.15192 25.642738 119.66611-3.419032 20.51419-18.804674 85.475793-17.095159 88.894825 1.709516 3.419032 22.223706 80.347245-25.642737 111.118531 0 0-82.056761 157.275459-80.347246 174.370617 1.709516 18.804674 1.709516 29.06177 1.709516 29.06177l1.709516 25.642738c-6.838063 8.547579 5.128548 63.252087 18.804674 75.218698 13.676127 11.966611 32.480801 64.961603-27.352253 42.737896-59.833055-20.51419-66.671119-75.218698-66.671119-75.218698s-46.156928-20.51419-15.385643-56.414023c29.06177-35.899833 39.318865-34.190317 39.318865-34.190317s1.709516-20.51419 6.838063-17.095159c3.419032 1.709516 18.804674-213.689482 70.090151-206.851419l-10.257095-20.51419s-17.095159 35.899833-25.642738 42.737896c-8.547579 6.838063-6.838063 30.771285-37.609349 42.737897-30.771285 11.966611-85.475793 56.414023-129.923206 87.185309 0 0-6.838063 37.609349-11.966611 39.318864-3.419032 1.709516-30.771285 51.285476-25.642738 61.542571 6.838063 11.966611-22.223706 80.347245-47.866444 8.54758-25.642738-70.09015-6.838063-76.928214-6.838063-76.928214s-20.51419-59.833055 5.128548-61.542571c25.642738-1.709516 47.866444 1.709516 51.285475 0 3.419032-1.709516 8.547579-3.419032 8.54758-3.419032s83.766277-117.956594 121.375626-114.537562c0 0-6.838063-152.146912 10.257095-160.694491 0 0-56.414023-90.604341-6.838064-141.889817 0 0-34.190317-83.766277-22.223706-94.023372 0 0-25.642738-18.804674-18.804674-25.642738 0 0-78.63773 32.480801-116.247079 32.480802 0 0-20.51419 5.128548-27.352253 11.966611 0 0-143.599332 29.06177-155.565944 11.966611-10.257095-15.385643 78.63773-41.028381 78.63773-41.028381z" p-id="3777"></path><path d="M168.387312 205.141903m-73.509182 0a73.509182 73.509182 0 1 0 147.018364 0 73.509182 73.509182 0 1 0-147.018364 0Z" p-id="3778"></path></svg>