<?xml version="1.0" standalone="no"?><!DOCTYPE svg PUBLIC "-//W3C//DTD SVG 1.1//EN" "http://www.w3.org/Graphics/SVG/1.1/DTD/svg11.dtd"><svg t="1523604928453" class="icon" style="" viewBox="0 0 1024 1024" version="1.1" xmlns="http://www.w3.org/2000/svg" p-id="13437" xmlns:xlink="http://www.w3.org/1999/xlink" width="64" height="64"><defs><style type="text/css"></style></defs><path d="M765.107625 674.268734c-11.673877-17.820877-7.245008-27.300786-9.660011-47.013757-2.415003-19.717064-9.251711-31.850405-10.462283-57.628512-1.203408-25.78527 4.027733-90.617857-2.013867-98.197486-6.033413-7.583722-13.278421 12.129248-14.481829 42.083467-1.210571 29.951149-24.951275 62.558801-24.951275 149.000546 0 29.193903-85.309968 91.375104-102.214986 91.375104-11.492752 0-39.156812-21.550829-55.701626-35.351136-8.746198-7.296173-19.754926-11.281951-31.144324-11.281951l-5.306866 0-5.314029 0c-11.390421 0-22.402219 3.985778-31.144324 11.281951-16.540721 13.800307-44.208874 35.351136-55.698556 35.351136-16.900925 0-102.214986-62.181201-102.214986-91.375104 0-86.441744-23.743774-119.049397-24.951275-149.000546-1.208525-29.954219-8.452509-49.66719-14.485923-42.083467-6.036483 7.579629-0.806365 72.412217-2.013867 98.197486-1.203408 25.77913-8.04728 37.911448-10.462283 57.628512-2.415003 19.712971 2.013867 29.192879-9.660011 47.013757-11.669784 17.817808 10.867512 64.831564 8.04728 95.540983-2.816139 30.712489-8.448416 62.182224 12.880355 90.237187 21.363564 28.103058 29.743418 21.76163 37.022195 36.237319 7.245008 14.406105 20.523429 7.743358 25.352411 35.040051 4.830005 27.301809 24.14491 14.786775 38.631856 26.543539 14.488992 11.749602 27.767414 4.546549 46.682205 12.129248 18.913768 7.584746 19.717064 7.961322 28.570709 8.341992 8.853645 0.376577 26.962072-5.306866 36.219923 0 9.251711 5.306866 19.312858 1.172709 22.537296 0.017396 3.217275 1.155313 13.278421 5.290493 22.530133-0.017396 9.257851-5.306866 27.366278 0.376577 36.222993 0 8.849552-0.38067 9.652847-0.757247 28.570709-8.341992 18.910699-7.583722 32.196283-0.38067 46.679136-12.129248 14.488992-11.756765 33.80185 0.75827 38.630832-26.543539 4.830005-27.296693 18.11559-20.633946 25.352411-35.040051 7.245008-14.406105 15.693424-8.179286 37.026288-36.237319 21.325701-28.054963 15.693424-59.524698 12.877285-90.237187C754.244206 739.100298 776.780479 692.086541 765.107625 674.268734z" p-id="13438"></path><path d="M467.877083 613.491509c-45.349861 0-72.768327 65.914222-112.054075 15.818267 1.584078 12.392238 20.038382 59.32413 83.58058 59.32413 48.245817 0 74.609255-19.509333 74.609255-39.022759C514.013867 630.101815 503.467673 613.491509 467.877083 613.491509z" p-id="13439"></path><path d="M550.457894 613.491509c45.349861 0 72.765257 65.914222 112.054075 15.818267-1.585101 12.392238-20.039405 59.32413-83.58058 59.32413-48.249911 0-74.613348-19.509333-74.613348-39.022759C504.319064 630.101815 514.864234 613.491509 550.457894 613.491509z" p-id="13440"></path><path d="M796.98566 243.942895c-13.18223 14.648628-62.98859-92.291986-90.818425-125.989459-27.836999-33.68724-55.673997-30.757514-82.044598-30.757514-26.370601 0-147.95882-20.512173-193.368032-39.554878-45.412282-19.045775-46.879704 26.366508-76.18003 35.157731-29.300326 8.788154-13.316284 68.815295-52.740178 68.852134-39.419801 0.037862-45.412282 20.510126-64.453964 35.157731-19.045775 14.648628-25.363667 35.58752-35.161824 57.134255-7.320733 16.111956 20.509103 65.921385 24.90625 105.477286 1.840928 16.562211 11.905144 49.063439 22.986527 81.242326 0.155543 0.99977 0.280386 1.961678 0.443092 2.968611 6.501064 39.666418 17.884322 84.158748 35.172057 134.068462 0 0 10.251481-121.592312 30.760584-168.472016-2.113127-16.911158-34.672684-117.641327 44.118823-125.726469 0.639566 0.49835 112.798019 87.679945 171.232896 102.286618 0 0-62.570058-37.575804-93.77271-89.721441 20.678972 6.816243 44.326555 16.392342 71.796186 29.65746 11.403724-5.504364 21.962198-10.203386 32.148188-14.541181 26.882254 17.066701 99.432617 64.866357 123.132388 98.046037 0 0-42.209334-69.955258-94.700849-109.323894C757.218958 222.461651 705.904245 377.838418 703.233416 399.225517c20.510126 46.879704 30.763654 168.472016 30.763654 168.472016 2.477424-7.154957 4.808516-14.174837 7.051603-21.11183l0 0.034792c0 0 42.754756-129.816624 50.082652-144.468322 7.320733-14.645558 5.854335-70.315462 5.854335-84.96409C796.98566 302.536384 810.17403 229.294266 796.98566 243.942895z" p-id="13441"></path></svg>