<?xml version="1.0" standalone="no"?><!DOCTYPE svg PUBLIC "-//W3C//DTD SVG 1.1//EN" "http://www.w3.org/Graphics/SVG/1.1/DTD/svg11.dtd"><svg t="1523608838688" class="icon" style="" viewBox="0 0 1024 1024" version="1.1" xmlns="http://www.w3.org/2000/svg" p-id="9090" xmlns:xlink="http://www.w3.org/1999/xlink" width="64" height="64"><defs><style type="text/css"></style></defs><path d="M772.654545 607.418182c20.945455 0 39.563636-13.963636 44.218182-34.909091l27.927273-104.727273c6.981818-25.6-9.309091-51.2-32.581818-55.854545-25.6-6.981818-51.2 9.309091-55.854546 32.581818l-27.927272 104.727273c-6.981818 25.6 9.309091 51.2 32.581818 55.854545 4.654545 2.327273 6.981818 2.327273 11.636363 2.327273z m-195.490909 2.327273c20.945455 0 39.563636-13.963636 44.218182-34.909091l27.927273-104.727273c6.981818-25.6-9.309091-51.2-32.581818-55.854546-25.6-6.981818-51.2 9.309091-55.854546 32.581819l-27.927272 104.727272c-6.981818 25.6 9.309091 51.2 32.581818 55.854546 4.654545 2.327273 6.981818 2.327273 11.636363 2.327273zM118.690909 893.672727c-9.309091-6.981818-13.963636-18.618182-11.636364-27.927272 2.327273-11.636364 11.636364-20.945455 20.945455-23.272728 48.872727-11.636364 65.163636-16.290909 81.454545-30.254545-74.472727-53.527273-162.909091-165.236364-162.90909-300.218182C46.545455 260.654545 260.654545 46.545455 516.654545 46.545455 770.327273 46.545455 977.454545 253.672727 977.454545 509.672727c0 253.672727-169.890909 435.2-430.545454 463.127273-25.6 2.327273-48.872727 4.654545-74.472727 4.654545-141.963636 0-286.254545-39.563636-353.745455-83.781818z" p-id="9091"></path></svg>