<?xml version="1.0" standalone="no"?><!DOCTYPE svg PUBLIC "-//W3C//DTD SVG 1.1//EN" "http://www.w3.org/Graphics/SVG/1.1/DTD/svg11.dtd"><svg t="1523608032895" class="icon" style="" viewBox="0 0 1024 1024" version="1.1" xmlns="http://www.w3.org/2000/svg" p-id="8399" xmlns:xlink="http://www.w3.org/1999/xlink" width="64" height="64"><defs><style type="text/css"></style></defs><path d="M899.544477 127.981836 123.664507 127.981836c-32.962739 0-59.683311 28.626991-59.683311 63.943334l0 447.601294c0 35.31532 26.720571 63.943334 59.683311 63.943334l358.098841 0-119.366621 191.82898 298.41553 0-119.366621-191.82898 358.098841 0c32.962739 0 59.683311-28.626991 59.683311-63.943334L959.227788 191.925171C959.227788 156.608827 932.508239 127.981836 899.544477 127.981836zM899.544477 575.583131c0 35.31532-26.720571 63.943334-59.683311 63.943334L183.347818 639.526465c-32.962739 0-59.683311-28.626991-59.683311-63.943334L123.664507 255.867482c0-35.31532 26.720571-63.943334 59.683311-63.943334L839.862189 191.924147c32.962739 0 59.683311 28.626991 59.683311 63.943334L899.5455 575.583131z" p-id="8400"></path></svg>