<?xml version="1.0" standalone="no"?><!DOCTYPE svg PUBLIC "-//W3C//DTD SVG 1.1//EN" "http://www.w3.org/Graphics/SVG/1.1/DTD/svg11.dtd"><svg t="1523602421373" class="icon" style="" viewBox="0 0 1024 1024" version="1.1" xmlns="http://www.w3.org/2000/svg" p-id="650" xmlns:xlink="http://www.w3.org/1999/xlink" width="64" height="64"><defs><style type="text/css"></style></defs><path d="M512 738.255047c-51.314713 0-97.783047-23.580045-131.762953-61.706387-12.876262 14.44806-23.934109 30.976502-32.786731 49.142234 43.2265 45.950542 100.93483 74.269517 164.549683 74.269517 63.61383 0 121.32216-28.318976 164.549683-74.269517-8.852622-18.165732-19.911492-34.69622-32.786731-49.142234C609.783047 714.675002 563.314713 738.255047 512 738.255047zM429.725158 470.862068c0-45.439912-36.83493-82.274842-82.274842-82.274842s-82.274842 36.83493-82.274842 82.274842 36.83493 82.274842 82.274842 82.274842S429.725158 516.301979 429.725158 470.862068zM964.27985 526.323217c0.148379-4.756327 0.231267-9.531074 0.231267-14.323217 0-249.91798-202.593138-452.511117-452.511117-452.511117-249.909793 0-452.511117 202.593138-452.511117 452.511117 0 4.793166 0.083911 9.56689 0.231267 14.323217C33.985022 555.361577 18.35095 593.558527 18.35095 635.411751c0 83.742263 62.550615 152.868643 143.478785 163.211199 82.987063 101.266381 209.03178 165.887145 350.169241 165.887145 141.142577 0 267.187295-64.621786 350.173334-165.887145 80.927147-10.344602 143.475715-79.470983 143.475715-163.211199C1005.64905 593.558527 990.014978 555.361577 964.27985 526.323217zM841.099367 717.686592c-6.777357 0-13.358239-0.836041-19.658735-2.381234-66.195631 100.54802-180.055842 166.930917-309.440631 166.930917s-243.245-66.382896-309.440631-166.930917c-6.30152 1.545192-12.881378 2.381234-19.658735 2.381234-45.439912 0-82.274842-36.83493-82.274842-82.274842 0-31.839149 18.096147-59.432601 44.551682-73.111135-2.234901-16.451694-3.414773-33.238009-3.414773-50.301639 0-202.116277 161.957649-366.378411 363.17137-370.146225-16.969487 47.882544-62.650899 82.185814-116.347868 82.185814-14.504342 0-28.211529-2.961448-41.136909-7.553023l0 85.681428c13.295817 2.698458 27.042913 4.146437 41.136909 4.146437 96.699366 0 177.767729-66.730821 199.76472-156.649759 167.840636 35.1915 293.88433 184.03548 293.88433 362.336352 0 17.064654-1.179872 33.850969-3.414773 50.301639 26.457582 13.678534 44.551682 41.271986 44.551682 73.111135C923.374208 680.852686 886.539278 717.686592 841.099367 717.686592zM676.54866 388.588249c-45.440935 0-82.274842 36.83493-82.274842 82.274842s36.83493 82.274842 82.274842 82.274842 82.274842-36.83493 82.274842-82.274842S721.989595 388.588249 676.54866 388.588249z" p-id="651"></path></svg>